<?xml version="1.0" encoding="us-ascii" standalone="no"?><svg xmlns="http://www.w3.org/2000/svg" xmlns:xlink="http://www.w3.org/1999/xlink" contentStyleType="text/css" height="506px" preserveAspectRatio="none" style="width:476px;height:506px;background:#FFFFFF;" version="1.1" viewBox="0 0 476 506" width="476px" zoomAndPan="magnify"><defs/><g><!--class class--><g id="elem_class"><rect codeLine="2" fill="#F1F1F1" height="124.2717" id="class" rx="2.5" ry="2.5" style="stroke:#181818;stroke-width:0.5;" width="151" x="126.5" y="181.5"/><ellipse cx="181.25" cy="197.5" fill="#ADD1B2" rx="11" ry="11" style="stroke:#181818;stroke-width:1.0;"/><path d="M184.2188,203.1406 Q183.6406,203.4375 183,203.5781 Q182.3594,203.7344 181.6563,203.7344 Q179.1563,203.7344 177.8281,202.0938 Q176.5156,200.4375 176.5156,197.3125 Q176.5156,194.1875 177.8281,192.5313 Q179.1563,190.875 181.6563,190.875 Q182.3594,190.875 183,191.0313 Q183.6563,191.1875 184.2188,191.4844 L184.2188,194.2031 Q183.5938,193.625 183,193.3594 Q182.4063,193.0781 181.7813,193.0781 Q180.4375,193.0781 179.75,194.1563 Q179.0625,195.2188 179.0625,197.3125 Q179.0625,199.4063 179.75,200.4844 Q180.4375,201.5469 181.7813,201.5469 Q182.4063,201.5469 183,201.2813 Q183.5938,201 184.2188,200.4219 L184.2188,203.1406 Z " fill="#000000"/><text fill="#000000" font-family="sans-serif" font-size="14" lengthAdjust="spacing" textLength="33" x="201.75" y="202.932">class</text><line style="stroke:#181818;stroke-width:0.5;" x1="127.5" x2="276.5" y1="213.5" y2="213.5"/><rect fill="none" height="6" style="stroke:#C82930;stroke-width:1.0;" width="6" x="134.5" y="225.534"/><text fill="#000000" font-family="sans-serif" font-size="14" lengthAdjust="spacing" textLength="87" x="146.5" y="232.4659">String name;</text><rect fill="none" height="6" style="stroke:#C82930;stroke-width:1.0;" width="6" x="134.5" y="244.6019"/><text fill="#000000" font-family="sans-serif" font-size="14" lengthAdjust="spacing" textLength="76" x="146.5" y="251.5339">type enum;</text><rect fill="none" height="6" style="stroke:#C82930;stroke-width:1.0;" width="6" x="134.5" y="263.6698"/><text fill="#000000" font-family="sans-serif" font-size="14" lengthAdjust="spacing" textLength="125" x="146.5" y="270.6018">String[] attributes;</text><rect fill="none" height="6" style="stroke:#C82930;stroke-width:1.0;" width="6" x="134.5" y="282.7377"/><text fill="#000000" font-family="sans-serif" font-size="14" lengthAdjust="spacing" textLength="118" x="146.5" y="289.6697">String[] methods;</text><line style="stroke:#181818;stroke-width:0.5;" x1="127.5" x2="276.5" y1="297.7717" y2="297.7717"/></g><!--class attribute--><g id="elem_attribute"><rect codeLine="9" fill="#F1F1F1" height="105.2038" id="attribute" rx="2.5" ry="2.5" style="stroke:#181818;stroke-width:0.5;" width="178" x="7" y="384.5"/><ellipse cx="62.25" cy="400.5" fill="#ADD1B2" rx="11" ry="11" style="stroke:#181818;stroke-width:1.0;"/><path d="M65.2188,406.1406 Q64.6406,406.4375 64,406.5781 Q63.3594,406.7344 62.6563,406.7344 Q60.1563,406.7344 58.8281,405.0938 Q57.5156,403.4375 57.5156,400.3125 Q57.5156,397.1875 58.8281,395.5313 Q60.1563,393.875 62.6563,393.875 Q63.3594,393.875 64,394.0313 Q64.6563,394.1875 65.2188,394.4844 L65.2188,397.2031 Q64.5938,396.625 64,396.3594 Q63.4063,396.0781 62.7813,396.0781 Q61.4375,396.0781 60.75,397.1563 Q60.0625,398.2188 60.0625,400.3125 Q60.0625,402.4063 60.75,403.4844 Q61.4375,404.5469 62.7813,404.5469 Q63.4063,404.5469 64,404.2813 Q64.5938,404 65.2188,403.4219 L65.2188,406.1406 Z " fill="#000000"/><text fill="#000000" font-family="sans-serif" font-size="14" lengthAdjust="spacing" textLength="59" x="82.75" y="405.932">attribute</text><line style="stroke:#181818;stroke-width:0.5;" x1="8" x2="184" y1="416.5" y2="416.5"/><rect fill="none" height="6" style="stroke:#C82930;stroke-width:1.0;" width="6" x="15" y="428.534"/><text fill="#000000" font-family="sans-serif" font-size="14" lengthAdjust="spacing" textLength="87" x="27" y="435.4659">String name;</text><rect fill="none" height="6" style="stroke:#C82930;stroke-width:1.0;" width="6" x="15" y="447.6019"/><text fill="#000000" font-family="sans-serif" font-size="14" lengthAdjust="spacing" textLength="152" x="27" y="454.5339">enum access modifier;</text><rect fill="none" height="6" style="stroke:#C82930;stroke-width:1.0;" width="6" x="15" y="466.6698"/><text fill="#000000" font-family="sans-serif" font-size="14" lengthAdjust="spacing" textLength="111" x="27" y="473.6018">String dataType;</text><line style="stroke:#181818;stroke-width:0.5;" x1="8" x2="184" y1="481.7038" y2="481.7038"/></g><!--class method--><g id="elem_method"><rect codeLine="15" fill="#F1F1F1" height="124.2717" id="method" rx="2.5" ry="2.5" style="stroke:#181818;stroke-width:0.5;" width="178" x="220" y="375"/><ellipse cx="278.75" cy="391" fill="#ADD1B2" rx="11" ry="11" style="stroke:#181818;stroke-width:1.0;"/><path d="M281.7188,396.6406 Q281.1406,396.9375 280.5,397.0781 Q279.8594,397.2344 279.1563,397.2344 Q276.6563,397.2344 275.3281,395.5938 Q274.0156,393.9375 274.0156,390.8125 Q274.0156,387.6875 275.3281,386.0313 Q276.6563,384.375 279.1563,384.375 Q279.8594,384.375 280.5,384.5313 Q281.1563,384.6875 281.7188,384.9844 L281.7188,387.7031 Q281.0938,387.125 280.5,386.8594 Q279.9063,386.5781 279.2813,386.5781 Q277.9375,386.5781 277.25,387.6563 Q276.5625,388.7188 276.5625,390.8125 Q276.5625,392.9063 277.25,393.9844 Q277.9375,395.0469 279.2813,395.0469 Q279.9063,395.0469 280.5,394.7813 Q281.0938,394.5 281.7188,393.9219 L281.7188,396.6406 Z " fill="#000000"/><text fill="#000000" font-family="sans-serif" font-size="14" lengthAdjust="spacing" textLength="52" x="299.25" y="396.432">method</text><line style="stroke:#181818;stroke-width:0.5;" x1="221" x2="397" y1="407" y2="407"/><rect fill="none" height="6" style="stroke:#C82930;stroke-width:1.0;" width="6" x="228" y="419.034"/><text fill="#000000" font-family="sans-serif" font-size="14" lengthAdjust="spacing" textLength="87" x="240" y="425.9659">String name;</text><rect fill="none" height="6" style="stroke:#C82930;stroke-width:1.0;" width="6" x="228" y="438.1019"/><text fill="#000000" font-family="sans-serif" font-size="14" lengthAdjust="spacing" textLength="152" x="240" y="445.0339">enum access modifier;</text><rect fill="none" height="6" style="stroke:#C82930;stroke-width:1.0;" width="6" x="228" y="457.1698"/><text fill="#000000" font-family="sans-serif" font-size="14" lengthAdjust="spacing" textLength="126" x="240" y="464.1018">String Parameters;</text><rect fill="none" height="6" style="stroke:#C82930;stroke-width:1.0;" width="6" x="228" y="476.2377"/><text fill="#000000" font-family="sans-serif" font-size="14" lengthAdjust="spacing" textLength="124" x="240" y="483.1697">String returnType;</text><line style="stroke:#181818;stroke-width:0.5;" x1="221" x2="397" y1="491.2717" y2="491.2717"/></g><!--class association--><g id="elem_association"><rect codeLine="22" fill="#F1F1F1" height="105.2038" id="association" rx="2.5" ry="2.5" style="stroke:#181818;stroke-width:0.5;" width="108" x="242" y="7"/><ellipse cx="257.45" cy="23" fill="#ADD1B2" rx="11" ry="11" style="stroke:#181818;stroke-width:1.0;"/><path d="M260.4188,28.6406 Q259.8406,28.9375 259.2,29.0781 Q258.5594,29.2344 257.8563,29.2344 Q255.3563,29.2344 254.0281,27.5938 Q252.7156,25.9375 252.7156,22.8125 Q252.7156,19.6875 254.0281,18.0313 Q255.3563,16.375 257.8563,16.375 Q258.5594,16.375 259.2,16.5313 Q259.8563,16.6875 260.4188,16.9844 L260.4188,19.7031 Q259.7938,19.125 259.2,18.8594 Q258.6063,18.5781 257.9813,18.5781 Q256.6375,18.5781 255.95,19.6563 Q255.2625,20.7188 255.2625,22.8125 Q255.2625,24.9063 255.95,25.9844 Q256.6375,27.0469 257.9813,27.0469 Q258.6063,27.0469 259.2,26.7813 Q259.7938,26.5 260.4188,25.9219 L260.4188,28.6406 Z " fill="#000000"/><text fill="#000000" font-family="sans-serif" font-size="14" lengthAdjust="spacing" textLength="75" x="271.55" y="28.432">association</text><line style="stroke:#181818;stroke-width:0.5;" x1="243" x2="349" y1="39" y2="39"/><rect fill="none" height="6" style="stroke:#C82930;stroke-width:1.0;" width="6" x="250" y="51.034"/><text fill="#000000" font-family="sans-serif" font-size="14" lengthAdjust="spacing" textLength="82" x="262" y="57.9659">class class1;</text><rect fill="none" height="6" style="stroke:#C82930;stroke-width:1.0;" width="6" x="250" y="70.1019"/><text fill="#000000" font-family="sans-serif" font-size="14" lengthAdjust="spacing" textLength="82" x="262" y="77.0339">class class2;</text><rect fill="none" height="6" style="stroke:#C82930;stroke-width:1.0;" width="6" x="250" y="89.1698"/><text fill="#000000" font-family="sans-serif" font-size="14" lengthAdjust="spacing" textLength="80" x="262" y="96.1018">class arrow;</text><line style="stroke:#181818;stroke-width:0.5;" x1="243" x2="349" y1="104.2038" y2="104.2038"/></g><!--class arrow--><g id="elem_arrow"><rect codeLine="28" fill="#F1F1F1" height="143.3396" id="arrow" rx="2.5" ry="2.5" style="stroke:#181818;stroke-width:0.5;" width="156" x="313" y="172"/><ellipse cx="367.25" cy="188" fill="#ADD1B2" rx="11" ry="11" style="stroke:#181818;stroke-width:1.0;"/><path d="M370.2188,193.6406 Q369.6406,193.9375 369,194.0781 Q368.3594,194.2344 367.6563,194.2344 Q365.1563,194.2344 363.8281,192.5938 Q362.5156,190.9375 362.5156,187.8125 Q362.5156,184.6875 363.8281,183.0313 Q365.1563,181.375 367.6563,181.375 Q368.3594,181.375 369,181.5313 Q369.6563,181.6875 370.2188,181.9844 L370.2188,184.7031 Q369.5938,184.125 369,183.8594 Q368.4063,183.5781 367.7813,183.5781 Q366.4375,183.5781 365.75,184.6563 Q365.0625,185.7188 365.0625,187.8125 Q365.0625,189.9063 365.75,190.9844 Q366.4375,192.0469 367.7813,192.0469 Q368.4063,192.0469 369,191.7813 Q369.5938,191.5 370.2188,190.9219 L370.2188,193.6406 Z " fill="#000000"/><text fill="#000000" font-family="sans-serif" font-size="14" lengthAdjust="spacing" textLength="39" x="387.75" y="193.432">arrow</text><line style="stroke:#181818;stroke-width:0.5;" x1="314" x2="468" y1="204" y2="204"/><rect fill="none" height="6" style="stroke:#C82930;stroke-width:1.0;" width="6" x="321" y="216.034"/><text fill="#000000" font-family="sans-serif" font-size="14" lengthAdjust="spacing" textLength="100" x="333" y="222.9659">enum tailStart;</text><rect fill="none" height="6" style="stroke:#C82930;stroke-width:1.0;" width="6" x="321" y="235.1019"/><text fill="#000000" font-family="sans-serif" font-size="14" lengthAdjust="spacing" textLength="94" x="333" y="242.0339">enum tailEnd;</text><rect fill="none" height="6" style="stroke:#C82930;stroke-width:1.0;" width="6" x="321" y="254.1698"/><text fill="#000000" font-family="sans-serif" font-size="14" lengthAdjust="spacing" textLength="130" x="333" y="261.1018">String tailStartText;</text><rect fill="none" height="6" style="stroke:#C82930;stroke-width:1.0;" width="6" x="321" y="273.2377"/><text fill="#000000" font-family="sans-serif" font-size="14" lengthAdjust="spacing" textLength="124" x="333" y="280.1697">String tailEndText;</text><rect fill="none" height="6" style="stroke:#C82930;stroke-width:1.0;" width="6" x="321" y="292.3056"/><text fill="#000000" font-family="sans-serif" font-size="14" lengthAdjust="spacing" textLength="76" x="333" y="299.2376">enum type;</text><line style="stroke:#181818;stroke-width:0.5;" x1="314" x2="468" y1="307.3396" y2="307.3396"/></g><!--link class to attribute--><g id="link_class_attribute"><path codeLine="36" d="M168.17,305.62 C154.11,331.01 146.6995,344.413 133.2495,368.703 " fill="none" id="class-to-attribute" style="stroke:#181818;stroke-width:1.0;stroke-dasharray:7.0,7.0;"/><polygon fill="none" points="124.53,384.45,138.4986,371.6095,128.0005,365.7964,124.53,384.45" style="stroke:#181818;stroke-width:1.0;"/></g><!--link class to method--><g id="link_class_method"><path codeLine="37" d="M236.15,305.62 C248.5,327.73 253.6699,336.9767 266.0299,359.0967 " fill="none" id="class-to-method" style="stroke:#181818;stroke-width:1.0;stroke-dasharray:7.0,7.0;"/><polygon fill="none" points="274.81,374.81,271.2676,356.1699,260.7921,362.0234,274.81,374.81" style="stroke:#181818;stroke-width:1.0;"/></g><!--link association to class--><g id="link_association_class"><path codeLine="38" d="M269.31,112.17 C258.19,133.71 253.4428,142.9086 241.8428,165.3586 " fill="none" id="association-to-class" style="stroke:#181818;stroke-width:1.0;stroke-dasharray:7.0,7.0;"/><polygon fill="none" points="233.58,181.35,247.1733,168.1129,236.5124,162.6043,233.58,181.35" style="stroke:#181818;stroke-width:1.0;"/></g><!--link association to arrow--><g id="link_association_arrow"><path codeLine="39" d="M322.97,112.17 C332.62,130.66 335.3546,135.881 345.7046,155.721 " fill="none" id="association-to-arrow" style="stroke:#181818;stroke-width:1.0;stroke-dasharray:7.0,7.0;"/><polygon fill="none" points="354.03,171.68,351.0243,152.9459,340.385,158.4962,354.03,171.68" style="stroke:#181818;stroke-width:1.0;"/></g><!--SRC=[fP713e8m38RlUug-W2Hw9V7ctGHknaE5gajWCwL43Vhk3aPmWtZoi6Nx-kV_smq0G1KLDWqCUwSSW5KchCq53DQKUYBF6m6Pjav3nU48AEvqQeMQUQKckThIuRSQ8oRjpvW-0R0eoAbhM-gp9evyeKJ1t3KJsFgWFppto4uknF4Cm2GjcrcQMxRGADgQCJ9ultMwG9i88REzXsxzlGiQ5THL9iYIpk3Eb75tapAdXonBJXyKl4qyIPAyjjy_2Q5_KHMCwlaWMU9X2FK1]--></g></svg>